<?xml version="1.0" encoding="UTF-8"?>
<svg id="Calque_2" data-name="Calque 2" xmlns="http://www.w3.org/2000/svg" viewBox="0 0 479.9 204.1">
  <defs>
    <style>
      .cls-1 {
        fill: #4e008e;
      }
    </style>
  </defs>
  <g id="Layer_1" data-name="Layer 1">
    <g>
      <path class="cls-1" d="M305,.1l-29.8,63h-119.4l-37.6,79.5h-33.7c.3-4,1.1-7.9,2.4-11.8,3.2-9.6,9.3-17.5,17-23.1,2,2.3,3.8,4.7,5.5,7.3.3.4.8.4.9,0L164.7.2h140.5l-.2-.1Z"/>
      <path class="cls-1" d="M28.5,167.1c-3.4,6.7-8.3,12.4-14.2,16.8-4.9-5.6-8.9-12.3-11.4-19.8-1.7-5-2.6-10.1-2.9-15.1h33.5c-.4,6.2-2.1,12.4-5,18.1"/>
      <path class="cls-1" d="M55.7,149v54.9c-13.7-.8-26.7-6.3-36.7-15.4,6.4-4.9,11.7-11.2,15.4-18.5,3.4-6.7,5.3-13.8,5.8-21h15.5Z"/>
      <path class="cls-1" d="M31.2,130.7c1.3,3.9,2.1,7.8,2.4,11.8H0c.7-12.9,5.8-25.2,14.3-34.9,7.6,5.6,13.6,13.5,16.8,23l.1.1Z"/>
      <path class="cls-1" d="M55.7,87.6v54.9h-15.6c-.3-4.7-1.2-9.3-2.7-13.9-3.6-10.6-10.1-19.3-18.5-25.7,6-5.5,13.2-9.8,21.5-12.5,5.1-1.7,10.2-2.6,15.3-2.9"/>
      <path class="cls-1" d="M77.8,142.5h-15.5v-54.9c13.7.7,26.8,6.2,36.8,15.3-8.6,6.5-15.1,15.4-18.6,25.8-1.5,4.6-2.5,9.2-2.7,13.9v-.1Z"/>
      <path class="cls-1" d="M99.1,188.7c-6,5.4-13.2,9.7-21.4,12.4-5.1,1.7-10.3,2.6-15.5,2.9v-54.9h15.5c.4,7.2,2.4,14.4,5.8,21,3.8,7.4,9.1,13.7,15.5,18.6"/>
      <path class="cls-1" d="M118.1,149c-.7,13-5.9,25.3-14.4,35-6-4.4-10.8-10.1-14.3-16.8-2.9-5.7-4.6-11.9-5.1-18.1h33.8v-.1Z"/>
      <path class="cls-1" d="M356.6,0l-23.8,50.2c-3.7,7.7-8,13.5-18.7,13.5h-7.5c-8.2,0-14.3-6.9-9.4-17.1L319.2,0h11.2l-25.2,53.4h14.8L345.2,0h11.4Z"/>
      <path class="cls-1" d="M390.9,9.6h-10.6l-25.3,53.5h-11.2l25.3-53.5h-12l4.9-9.6h33.8l-4.9,9.6h0Z"/>
      <path class="cls-1" d="M362.8,63.1L408.3,0h13.5l-13.8,63.1h-10.5l3.3-14.8h-15.5l-10.7,14.8h-11.9.1ZM402.9,38.6l4.9-21.7-15.5,21.7h10.6Z"/>
      <path class="cls-1" d="M413.5,63.1L443.3,0h11.3l-12.4,26.3h14.1l12.4-26.3h11.2l-29.8,63.1h-11.3l12.8-27h-14.1l-12.8,27h-11.2Z"/>
      <path class="cls-1" d="M356.6,0l-23.8,50.2c-3.7,7.7-8,13.5-18.7,13.5h-7.5c-8.2,0-14.3-6.9-9.4-17.1L319.2,0h11.2l-25.2,53.4h14.8L345.2,0h11.4Z"/>
      <path class="cls-1" d="M390.9,9.6h-10.6l-25.3,53.5h-11.2l25.3-53.5h-12l4.9-9.6h33.8l-4.9,9.6h0Z"/>
      <path class="cls-1" d="M362.8,63.1L408.3,0h13.5l-13.8,63.1h-10.5l3.3-14.8h-15.5l-10.7,14.8h-11.9.1ZM402.9,38.6l4.9-21.7-15.5,21.7h10.6Z"/>
      <path class="cls-1" d="M413.5,63.1L443.3,0h11.3l-12.4,26.3h14.1l12.4-26.3h11.2l-29.8,63.1h-11.3l12.8-27h-14.1l-12.8,27h-11.2Z"/>
      <path class="cls-1" d="M180.8,204h42.4l-15.4-126.6h-42.5l-59.9,126.6h21.4l14.1-29.8h36.3l3.6,29.8h0ZM149.9,155.1l19.9-42,5.1,42h-25Z"/>
      <path class="cls-1" d="M329.8,184.8h-45.1l50.8-107.3h-102.2l-9,19.1h55.7l-50.9,107.5h91.5l9.1-19.2.1-.1Z"/>
      <path class="cls-1" d="M437.1,204l9-19.1h-52.9l50.2-107.5h-92l-9,19.1h46.7l-50.9,107.5h98.9,0Z"/>
    </g>
  </g>
</svg>